<svg viewBox="0 0 22 22" fill="none" xmlns="http://www.w3.org/2000/svg">
<g clip-path="url(#clip0_860_20)">
<path d="M4.72435 17.9697L18.0674 14.7823C18.478 14.6842 18.859 14.4886 19.1781 14.2121C19.4972 13.9356 19.745 13.5864 19.9005 13.1939C20.0561 12.8014 20.1148 12.3772 20.0717 11.9572C20.0286 11.5372 19.885 11.1337 19.653 10.781L15.617 4.64152C14.8451 3.24727 13.6378 2.14423 12.1797 1.50109C10.7215 0.857962 9.09289 0.710143 7.54281 1.08025C5.92924 1.46568 4.49535 2.38985 3.47789 3.70018C2.46043 5.0105 1.92024 6.62863 1.9465 8.28739L1.491 15.243C1.46443 15.6536 1.53461 16.0647 1.69589 16.4432C1.85717 16.8217 2.10505 17.1571 2.41958 17.4223C2.73411 17.6876 3.10651 17.8753 3.50681 17.9704C3.90711 18.0654 4.32414 18.0652 4.72435 17.9697Z" fill="current"/>
<path d="M7 18.3333C7.21039 19.3694 7.7725 20.3009 8.5911 20.97C9.40969 21.6391 10.4344 22.0046 11.4917 22.0046C12.5489 22.0046 13.5736 21.6391 14.3922 20.97C15.2108 20.3009 15.7729 19.3694 15.9833 18.3333H7Z" fill="current"/>
</g>
<defs>
<clipPath id="clip0_860_20">
<rect width="22" height="22" fill="white"/>
</clipPath>
</defs>
</svg>
