<svg  viewBox="0 0 22 22" fill="none" xmlns="http://www.w3.org/2000/svg">
<path d="M6.38402 5.385C6.15965 5.385 5.94447 5.29587 5.78581 5.13721C5.62716 4.97856 5.53802 4.76337 5.53802 4.539V0.846C5.53802 0.621627 5.62716 0.406443 5.78581 0.247788C5.94447 0.0891319 6.15965 0 6.38402 0C6.6084 0 6.82358 0.0891319 6.98224 0.247788C7.14089 0.406443 7.23003 0.621627 7.23003 0.846V4.539C7.23003 4.76337 7.14089 4.97856 6.98224 5.13721C6.82358 5.29587 6.6084 5.385 6.38402 5.385Z" fill="current"/>
<path d="M15.615 5.385C15.3906 5.385 15.1754 5.29587 15.0168 5.13721C14.8581 4.97856 14.769 4.76337 14.769 4.539V0.846C14.769 0.621627 14.8581 0.406443 15.0168 0.247788C15.1754 0.0891319 15.3906 0 15.615 0C15.8394 0 16.0545 0.0891319 16.2132 0.247788C16.3718 0.406443 16.461 0.621627 16.461 0.846V4.539C16.461 4.76337 16.3718 4.97856 16.2132 5.13721C16.0545 5.29587 15.8394 5.385 15.615 5.385Z" fill="current"/>
<path d="M0 11.301V18.286C0.00105881 19.2707 0.392694 20.2147 1.08897 20.911C1.78526 21.6073 2.72931 21.9989 3.714 22H18.286C19.2707 21.9989 20.2147 21.6073 20.911 20.911C21.6073 20.2147 21.9989 19.2707 22 18.286V11.301H0Z" fill="current"/>
<path d="M22 9.60901V5.56401C21.9989 4.57932 21.6073 3.63526 20.911 2.93898C20.2147 2.2427 19.2707 1.85107 18.286 1.85001H18.154V4.53801C18.154 5.21126 17.8866 5.85694 17.4105 6.333C16.9344 6.80906 16.2888 7.07651 15.6155 7.07651C14.9422 7.07651 14.2966 6.80906 13.8205 6.333C13.3444 5.85694 13.077 5.21126 13.077 4.53801V1.84601H8.923V4.53801C8.923 5.21126 8.65555 5.85694 8.17949 6.333C7.70343 6.80906 7.05775 7.07651 6.3845 7.07651C5.71125 7.07651 5.06557 6.80906 4.58951 6.333C4.11345 5.85694 3.846 5.21126 3.846 4.53801V1.84601H3.714C2.72862 1.84707 1.78396 2.23925 1.08756 2.9364C0.391167 3.63354 -5.70264e-07 4.57863 0 5.56401V9.61301L22 9.60901Z" fill="current"/>
</svg>
