<svg viewBox="0 0 22 22" fill="none" xmlns="http://www.w3.org/2000/svg">
<path d="M11 22C17.0751 22 22 17.0751 22 11C22 4.92487 17.0751 0 11 0C4.92487 0 0 4.92487 0 11C0 17.0751 4.92487 22 11 22Z" fill="#FEE500"/>
<path d="M9.66298 10.094L9.29498 11.131H10.03L9.66298 10.094Z" fill="black"/>
<path d="M11.012 5.67799C7.48899 5.67799 4.63199 7.91499 4.63199 10.678C4.68165 11.5937 4.98867 12.4767 5.51777 13.2257C6.04687 13.9747 6.77656 14.5592 7.62299 14.912C6.93199 17.278 6.91399 17.286 7.03199 17.355C7.17899 17.441 7.36899 17.355 9.87999 15.595C10.2554 15.6476 10.6339 15.674 11.013 15.674C14.537 15.674 17.393 13.437 17.393 10.674C17.393 7.91099 14.532 5.67799 11.012 5.67799ZM7.85299 12.071C7.85299 12.1686 7.81422 12.2622 7.7452 12.3312C7.67619 12.4002 7.58259 12.439 7.48499 12.439C7.38739 12.439 7.29379 12.4002 7.22477 12.3312C7.15576 12.2622 7.11699 12.1686 7.11699 12.071V9.89799H6.54299C6.44804 9.89799 6.35698 9.86028 6.28984 9.79314C6.22271 9.726 6.18499 9.63494 6.18499 9.53999C6.18499 9.44505 6.22271 9.35399 6.28984 9.28685C6.35698 9.21971 6.44804 9.18199 6.54299 9.18199H8.43199C8.52694 9.18199 8.618 9.21971 8.68513 9.28685C8.75227 9.35399 8.78999 9.44505 8.78999 9.53999C8.78999 9.63494 8.75227 9.726 8.68513 9.79314C8.618 9.86028 8.52694 9.89799 8.43199 9.89799H7.85299V12.071ZM10.712 12.416C10.329 12.416 10.4 12.116 10.223 11.781H9.10099C8.92599 12.113 8.99499 12.416 8.61199 12.416C8.22899 12.416 8.17899 12.192 8.29099 11.847L9.17099 9.54699C9.20731 9.44391 9.2733 9.35388 9.36067 9.28822C9.44804 9.22256 9.55288 9.18421 9.66199 9.17799C9.77016 9.18358 9.87432 9.22075 9.96159 9.28491C10.0489 9.34907 10.1154 9.43741 10.153 9.53899C10.732 11.346 11.564 12.417 10.712 12.416ZM12.806 12.367H11.626C11.01 12.367 11.385 11.535 11.273 9.54799C11.273 9.44827 11.3126 9.35264 11.3831 9.28212C11.4536 9.21161 11.5493 9.17199 11.649 9.17199C11.7487 9.17199 11.8443 9.21161 11.9149 9.28212C11.9854 9.35264 12.025 9.44827 12.025 9.54799V11.696H12.807C12.8532 11.6924 12.8996 11.6984 12.9433 11.7137C12.987 11.7289 13.0272 11.753 13.0611 11.7844C13.0951 11.8159 13.1222 11.854 13.1408 11.8964C13.1593 11.9389 13.1689 11.9847 13.1689 12.031C13.1689 12.0773 13.1593 12.1231 13.1408 12.1655C13.1222 12.208 13.0951 12.2461 13.0611 12.2776C13.0272 12.309 12.987 12.3331 12.9433 12.3483C12.8996 12.3636 12.8532 12.3696 12.807 12.366L12.806 12.367ZM15.687 12.092C15.6803 12.1396 15.6642 12.1854 15.6396 12.2268C15.6151 12.2682 15.5826 12.3043 15.544 12.333C15.036 12.716 14.661 11.599 14.165 11.126L14.037 11.253V12.053C14.037 12.1506 13.9982 12.2442 13.9292 12.3132C13.8602 12.3822 13.7666 12.421 13.669 12.421C13.5714 12.421 13.4778 12.3822 13.4088 12.3132C13.3398 12.2442 13.301 12.1506 13.301 12.053V9.54799C13.301 9.45039 13.3398 9.35679 13.4088 9.28778C13.4778 9.21877 13.5714 9.17999 13.669 9.17999C13.7666 9.17999 13.8602 9.21877 13.9292 9.28778C13.9982 9.35679 14.037 9.45039 14.037 9.54799V10.334C14.716 9.82499 15.092 8.91399 15.521 9.33999C15.95 9.76599 15.07 10.124 14.709 10.628C15.564 11.804 15.726 11.833 15.688 12.091L15.687 12.092Z" fill="#3C1E1E"/>
</svg>
