<svg id="msg-icon" xmlns="http://www.w3.org/2000/svg" width="16" height="14.5" viewBox="0 0 16 14.5">
  <path id="패스_87368" data-name="패스 87368" d="M13.606,4.705,8.96,7.021,4.322,4.705A.6.6,0,1,0,3.678,5.72a.642.642,0,0,0,.092.047L8.694,8.233a.6.6,0,0,0,.534,0l4.929-2.465a.6.6,0,0,0-.551-1.062" transform="translate(-0.925 -1.27)" fill="#666"/>
  <path id="패스_87369" data-name="패스 87369" d="M12.364,0H3.636A3.635,3.635,0,0,0,0,3.625v7.25A3.635,3.635,0,0,0,3.636,14.5h8.727A3.635,3.635,0,0,0,16,10.875V3.625A3.635,3.635,0,0,0,12.364,0m2.545,10.875a2.541,2.541,0,0,1-2.545,2.538H3.636a2.541,2.541,0,0,1-2.545-2.538V3.625A2.541,2.541,0,0,1,3.636,1.088h8.727a2.541,2.541,0,0,1,2.545,2.538Z" fill="#666"/>
</svg>
