<svg viewBox="0 0 22 22" fill="none" xmlns="http://www.w3.org/2000/svg">
<path d="M21.4462 18.8601L16.8029 14.2169C18.0558 12.323 18.5607 10.0314 18.2198 7.78634C17.8789 5.5413 16.7164 3.50286 14.9578 2.06633C13.1991 0.629799 10.9697 -0.102457 8.70179 0.0115659C6.43388 0.125589 4.28912 1.07777 2.68344 2.68344C1.07777 4.28912 0.125589 6.43388 0.0115659 8.70179C-0.102457 10.9697 0.629799 13.1991 2.06633 14.9578C3.50286 16.7164 5.5413 17.8789 7.78634 18.2198C10.0314 18.5607 12.323 18.0558 14.2169 16.8029L18.8601 21.4462C19.0291 21.6199 19.2308 21.7583 19.4537 21.8534C19.6766 21.9484 19.9161 21.9983 20.1584 22C20.4007 22.0016 20.641 21.9552 20.8652 21.8632C21.0893 21.7713 21.293 21.6357 21.4644 21.4644C21.6357 21.293 21.7713 21.0893 21.8632 20.8652C21.9552 20.641 22.0016 20.4007 22 20.1584C21.9983 19.9161 21.9484 19.6766 21.8534 19.4537C21.7583 19.2308 21.6199 19.0291 21.4462 18.8601ZM2.7783 9.17951C2.7783 7.91347 3.15373 6.67586 3.8571 5.62319C4.56047 4.57051 5.5602 3.75006 6.72987 3.26556C7.89954 2.78107 9.18661 2.65431 10.4283 2.9013C11.67 3.14829 12.8106 3.75795 13.7058 4.65317C14.6011 5.5484 15.2107 6.68898 15.4577 7.93069C15.7047 9.17241 15.5779 10.4595 15.0934 11.6291C14.609 12.7988 13.7885 13.7985 12.7358 14.5019C11.6832 15.2053 10.4455 15.5807 9.17951 15.5807C7.48237 15.5789 5.85527 14.9039 4.65521 13.7038C3.45515 12.5037 2.78015 10.8766 2.7783 9.17951Z" fill="current"/>
</svg>
