<svg  viewBox="0 0 22 23" fill="none" xmlns="http://www.w3.org/2000/svg">
<path d="M18 15.005C17.4697 15.0059 16.9465 15.1272 16.4699 15.3598C15.9933 15.5925 15.5758 15.9304 15.249 16.348L7.37701 11.448C7.53812 10.8534 7.53812 10.2267 7.37701 9.63205L15.248 5.69205C15.7859 6.3797 16.5601 6.84306 17.4203 6.99222C18.2806 7.14138 19.1655 6.96572 19.9036 6.49931C20.6416 6.03291 21.1801 5.309 21.4146 4.46802C21.6491 3.62704 21.5629 2.72894 21.1727 1.94792C20.7825 1.1669 20.1162 0.558647 19.3029 0.241147C18.4896 -0.0763529 17.5874 -0.0804666 16.7712 0.229604C15.9551 0.539675 15.2832 1.14183 14.8859 1.91925C14.4886 2.69668 14.3942 3.59396 14.621 4.43705L6.75001 8.37705C6.30022 7.80486 5.68325 7.38712 4.98496 7.18197C4.28666 6.97682 3.54178 6.99446 2.85398 7.23243C2.16618 7.4704 1.56967 7.91687 1.14747 8.5097C0.72527 9.10254 0.498383 9.81224 0.498383 10.54C0.498383 11.2679 0.72527 11.9776 1.14747 12.5704C1.56967 13.1632 2.16618 13.6097 2.85398 13.8477C3.54178 14.0856 4.28666 14.1033 4.98496 13.8981C5.68325 13.693 6.30022 13.2752 6.75001 12.703L14.621 17.603C14.4318 18.3108 14.4692 19.0601 14.7279 19.7456C14.9866 20.431 15.4536 21.0182 16.0632 21.4245C16.6728 21.8309 17.3945 22.036 18.1267 22.011C18.8589 21.986 19.5649 21.7322 20.1454 21.2853C20.7259 20.8383 21.1518 20.2207 21.3631 19.5192C21.5745 18.8177 21.5607 18.0676 21.3238 17.3744C21.0868 16.6811 20.6385 16.0795 20.042 15.6542C19.4455 15.2288 18.7306 15.0011 17.998 15.003L18 15.005Z" fill="current"/>
</svg>
