<svg id="tel-book-icon" xmlns="http://www.w3.org/2000/svg" xmlns:xlink="http://www.w3.org/1999/xlink" width="16.004" height="17.004" viewBox="0 0 16.004 17.004">
  <defs>
    <clipPath id="clip-path">
      <rect id="사각형_8708" data-name="사각형 8708" width="16.004" height="17.004" fill="none"/>
    </clipPath>
  </defs>
  <g id="그룹_96524" data-name="그룹 96524" clip-path="url(#clip-path)">
    <path id="패스_87370" data-name="패스 87370" d="M.538,4.562a.649.649,0,0,0,.108,0V6.909a.589.589,0,1,0,1.172,0V4.562h.589v.055a.589.589,0,0,0,1.172,0V3.334a.589.589,0,1,0-1.172,0v.055H.646A.589.589,0,0,0,.538,4.562" transform="translate(0 0)" fill="#666"/>
    <path id="패스_87371" data-name="패스 87371" d="M2.934,9.737a.589.589,0,0,0,.645-.646V7.81a.589.589,0,1,0-1.172,0v.055H.646a.589.589,0,0,0,0,1.172v2.349a.589.589,0,1,0,1.172.118.582.582,0,0,0,0-.118V9.037h.589v.054a.59.59,0,0,0,.527.646" transform="translate(0 0)" fill="#666"/>
    <path id="패스_87372" data-name="패스 87372" d="M12.938,0h-9.2A3.026,3.026,0,0,0,.775,2.127a.569.569,0,0,0,.451.661.625.625,0,0,0,.739-.38A1.815,1.815,0,0,1,3.74,1.134h9.2a1.774,1.774,0,0,1,1.84,1.7V14.17a1.774,1.774,0,0,1-1.84,1.7H3.74a1.774,1.774,0,0,1-1.84-1.7V13.6h.615v.053a.555.555,0,0,0,.288.538.659.659,0,0,0,.649,0,.555.555,0,0,0,.288-.538V12.417a.622.622,0,0,0-1.224,0v.053H.675a.634.634,0,0,0-.582.266.53.53,0,0,0,0,.6.634.634,0,0,0,.582.266v.568A2.96,2.96,0,0,0,3.74,17h9.2A2.959,2.959,0,0,0,16,14.17V2.834A2.959,2.959,0,0,0,12.938,0" transform="translate(0 0)" fill="#666"/>
    <path id="패스_87373" data-name="패스 87373" d="M9.02,4.617a2.315,2.315,0,1,0,2.314,2.315A2.317,2.317,0,0,0,9.02,4.617m0,3.612A1.279,1.279,0,1,1,10.3,6.951,1.279,1.279,0,0,1,9.02,8.229" transform="translate(0 0)" fill="#666"/>
    <path id="패스_87374" data-name="패스 87374" d="M6.724,12a2.9,2.9,0,0,1,.226-.229,3.06,3.06,0,0,1,4.322.214.5.5,0,0,0,.363.161v0a.508.508,0,0,0,.375-.849c-.079-.087-.162-.17-.25-.25a4.076,4.076,0,0,0-5.753.251.644.644,0,0,0-.12.124A.509.509,0,0,0,6.724,12" transform="translate(0 0)" fill="#666"/>
  </g>
</svg>
