<svg viewBox="0 0 22 22" fill="none" xmlns="http://www.w3.org/2000/svg">
<path d="M13.637 2.02099C13.3696 1.55859 12.9853 1.17465 12.5226 0.907735C12.0599 0.640817 11.5352 0.500305 11.001 0.500305C10.4669 0.500305 9.9421 0.640817 9.47941 0.907735C9.01673 1.17465 8.6324 1.55859 8.36501 2.02099L0.381007 16.128C0.127488 16.5702 -0.00364454 17.072 0.00110093 17.5817C0.00584641 18.0914 0.146298 18.5906 0.408007 19.028C0.675642 19.4806 1.05755 19.855 1.51546 20.1135C1.97337 20.372 2.49118 20.5057 3.01701 20.501H18.984C19.5101 20.5057 20.0282 20.372 20.4863 20.1133C20.9444 19.8546 21.3264 19.48 21.594 19.027C21.8557 18.5896 21.9962 18.0904 22.0009 17.5807C22.0057 17.071 21.8745 16.5692 21.621 16.127L13.637 2.02099ZM11.002 16.864C10.8226 16.8624 10.6476 16.8078 10.4992 16.7069C10.3508 16.6061 10.2355 16.4636 10.1679 16.2973C10.1004 16.1311 10.0835 15.9486 10.1195 15.7728C10.1554 15.597 10.2426 15.4358 10.3701 15.3095C10.4975 15.1831 10.6595 15.0973 10.8356 15.0629C11.0117 15.0285 11.1941 15.047 11.3597 15.116C11.5253 15.185 11.6668 15.3015 11.7664 15.4508C11.8659 15.6001 11.919 15.7756 11.919 15.955C11.9185 16.0749 11.8943 16.1935 11.848 16.3041C11.8016 16.4146 11.7339 16.515 11.6488 16.5994C11.5636 16.6838 11.4627 16.7506 11.3517 16.796C11.2407 16.8414 11.1219 16.8645 11.002 16.864ZM11.919 12.319C11.9111 12.5568 11.8111 12.7823 11.6401 12.9478C11.4691 13.1132 11.2405 13.2057 11.0025 13.2057C10.7645 13.2057 10.5359 13.1132 10.3649 12.9478C10.1939 12.7823 10.0939 12.5568 10.086 12.319V6.86399C10.0939 6.62616 10.1939 6.4007 10.3649 6.23524C10.5359 6.06977 10.7645 5.97727 11.0025 5.97727C11.2405 5.97727 11.4691 6.06977 11.6401 6.23524C11.8111 6.4007 11.9111 6.62616 11.919 6.86399V12.319Z" fill="current"/>
</svg>
